<svg id="visual" viewBox="0 0 675 900" width="675" height="900" xmlns="http://www.w3.org/2000/svg" xmlns:xlink="http://www.w3.org/1999/xlink" version="1.1"><rect x="0" y="0" width="675" height="900" fill="#001220"></rect><defs><linearGradient id="grad1_0" x1="0%" y1="0%" x2="100%" y2="100%"><stop offset="30%" stop-color="#fbae3c" stop-opacity="1"></stop><stop offset="70%" stop-color="#fbae3c" stop-opacity="1"></stop></linearGradient></defs><defs><linearGradient id="grad1_1" x1="0%" y1="0%" x2="100%" y2="100%"><stop offset="30%" stop-color="#fbae3c" stop-opacity="1"></stop><stop offset="70%" stop-color="#f48350" stop-opacity="1"></stop></linearGradient></defs><defs><linearGradient id="grad1_2" x1="0%" y1="0%" x2="100%" y2="100%"><stop offset="30%" stop-color="#d96162" stop-opacity="1"></stop><stop offset="70%" stop-color="#f48350" stop-opacity="1"></stop></linearGradient></defs><defs><linearGradient id="grad1_3" x1="0%" y1="0%" x2="100%" y2="100%"><stop offset="30%" stop-color="#d96162" stop-opacity="1"></stop><stop offset="70%" stop-color="#af4b6d" stop-opacity="1"></stop></linearGradient></defs><defs><linearGradient id="grad1_4" x1="0%" y1="0%" x2="100%" y2="100%"><stop offset="30%" stop-color="#7c3e6b" stop-opacity="1"></stop><stop offset="70%" stop-color="#af4b6d" stop-opacity="1"></stop></linearGradient></defs><defs><linearGradient id="grad1_5" x1="0%" y1="0%" x2="100%" y2="100%"><stop offset="30%" stop-color="#7c3e6b" stop-opacity="1"></stop><stop offset="70%" stop-color="#49335c" stop-opacity="1"></stop></linearGradient></defs><defs><linearGradient id="grad1_6" x1="0%" y1="0%" x2="100%" y2="100%"><stop offset="30%" stop-color="#1d2540" stop-opacity="1"></stop><stop offset="70%" stop-color="#49335c" stop-opacity="1"></stop></linearGradient></defs><defs><linearGradient id="grad1_7" x1="0%" y1="0%" x2="100%" y2="100%"><stop offset="30%" stop-color="#1d2540" stop-opacity="1"></stop><stop offset="70%" stop-color="#001220" stop-opacity="1"></stop></linearGradient></defs><defs><linearGradient id="grad2_0" x1="0%" y1="0%" x2="100%" y2="100%"><stop offset="30%" stop-color="#fbae3c" stop-opacity="1"></stop><stop offset="70%" stop-color="#fbae3c" stop-opacity="1"></stop></linearGradient></defs><defs><linearGradient id="grad2_1" x1="0%" y1="0%" x2="100%" y2="100%"><stop offset="30%" stop-color="#f48350" stop-opacity="1"></stop><stop offset="70%" stop-color="#fbae3c" stop-opacity="1"></stop></linearGradient></defs><defs><linearGradient id="grad2_2" x1="0%" y1="0%" x2="100%" y2="100%"><stop offset="30%" stop-color="#f48350" stop-opacity="1"></stop><stop offset="70%" stop-color="#d96162" stop-opacity="1"></stop></linearGradient></defs><defs><linearGradient id="grad2_3" x1="0%" y1="0%" x2="100%" y2="100%"><stop offset="30%" stop-color="#af4b6d" stop-opacity="1"></stop><stop offset="70%" stop-color="#d96162" stop-opacity="1"></stop></linearGradient></defs><defs><linearGradient id="grad2_4" x1="0%" y1="0%" x2="100%" y2="100%"><stop offset="30%" stop-color="#af4b6d" stop-opacity="1"></stop><stop offset="70%" stop-color="#7c3e6b" stop-opacity="1"></stop></linearGradient></defs><defs><linearGradient id="grad2_5" x1="0%" y1="0%" x2="100%" y2="100%"><stop offset="30%" stop-color="#49335c" stop-opacity="1"></stop><stop offset="70%" stop-color="#7c3e6b" stop-opacity="1"></stop></linearGradient></defs><defs><linearGradient id="grad2_6" x1="0%" y1="0%" x2="100%" y2="100%"><stop offset="30%" stop-color="#49335c" stop-opacity="1"></stop><stop offset="70%" stop-color="#1d2540" stop-opacity="1"></stop></linearGradient></defs><defs><linearGradient id="grad2_7" x1="0%" y1="0%" x2="100%" y2="100%"><stop offset="30%" stop-color="#001220" stop-opacity="1"></stop><stop offset="70%" stop-color="#1d2540" stop-opacity="1"></stop></linearGradient></defs><g transform="translate(675, 0)"><path d="M0 450C-73.5 430 -147 410 -216.5 375C-286 340 -351.5 290 -389.7 225C-428 160 -439 80 -450 0L0 0Z" fill="#0c1c30"></path><path d="M0 393.8C-64.3 376.2 -128.6 358.7 -189.4 328.1C-250.2 297.5 -307.5 253.7 -341 196.9C-374.5 140 -384.1 70 -393.7 0L0 0Z" fill="#312c4f"></path><path d="M0 337.5C-55.1 322.5 -110.3 307.5 -162.4 281.2C-214.5 255 -263.6 217.5 -292.3 168.8C-321 120 -329.2 60 -337.5 0L0 0Z" fill="#623965"></path><path d="M0 281.3C-45.9 268.7 -91.9 256.2 -135.3 234.4C-178.7 212.5 -219.7 181.2 -243.6 140.6C-267.5 100 -274.4 50 -281.2 0L0 0Z" fill="#96446e"></path><path d="M0 225C-36.8 215 -73.5 205 -108.2 187.5C-143 170 -175.7 145 -194.9 112.5C-214 80 -219.5 40 -225 0L0 0Z" fill="#c55469"></path><path d="M0 168.8C-27.6 161.2 -55.1 153.7 -81.2 140.6C-107.2 127.5 -131.8 108.7 -146.1 84.4C-160.5 60 -164.6 30 -168.7 0L0 0Z" fill="#e9705a"></path><path d="M0 112.5C-18.4 107.5 -36.8 102.5 -54.1 93.7C-71.5 85 -87.9 72.5 -97.4 56.3C-107 40 -109.7 20 -112.5 0L0 0Z" fill="#fa9845"></path><path d="M0 56.3C-9.2 53.7 -18.4 51.2 -27.1 46.9C-35.7 42.5 -43.9 36.2 -48.7 28.1C-53.5 20 -54.9 10 -56.2 0L0 0Z" fill="#fbae3c"></path></g><g transform="translate(0, 900)"><path d="M0 -450C76.4 -435.1 152.9 -420.1 222 -384.5C291.1 -348.9 352.9 -292.5 389.7 -225C426.5 -157.5 438.2 -78.7 450 0L0 0Z" fill="#0c1c30"></path><path d="M0 -393.7C66.9 -380.7 133.8 -367.6 194.2 -336.5C254.7 -305.3 308.8 -256 341 -196.9C373.2 -137.8 383.5 -68.9 393.8 0L0 0Z" fill="#312c4f"></path><path d="M0 -337.5C57.3 -326.3 114.7 -315.1 166.5 -288.4C218.3 -261.7 264.7 -219.4 292.3 -168.8C319.9 -118.1 328.7 -59 337.5 0L0 0Z" fill="#623965"></path><path d="M0 -281.2C47.8 -271.9 95.5 -262.6 138.7 -240.3C182 -218.1 220.6 -182.8 243.6 -140.6C266.6 -98.4 273.9 -49.2 281.3 0L0 0Z" fill="#96446e"></path><path d="M0 -225C38.2 -217.5 76.4 -210.1 111 -192.3C145.6 -174.4 176.5 -146.3 194.9 -112.5C213.2 -78.7 219.1 -39.4 225 0L0 0Z" fill="#c55469"></path><path d="M0 -168.7C28.7 -163.2 57.3 -157.6 83.2 -144.2C109.2 -130.8 132.3 -109.7 146.1 -84.4C159.9 -59 164.3 -29.5 168.8 0L0 0Z" fill="#e9705a"></path><path d="M0 -112.5C19.1 -108.8 38.2 -105 55.5 -96.1C72.8 -87.2 88.2 -73.1 97.4 -56.3C106.6 -39.4 109.6 -19.7 112.5 0L0 0Z" fill="#fa9845"></path><path d="M0 -56.2C9.6 -54.4 19.1 -52.5 27.7 -48.1C36.4 -43.6 44.1 -36.6 48.7 -28.1C53.3 -19.7 54.8 -9.8 56.3 0L0 0Z" fill="#fbae3c"></path></g></svg>