<svg id="visual" viewBox="0 0 675 900" width="675" height="900" xmlns="http://www.w3.org/2000/svg" xmlns:xlink="http://www.w3.org/1999/xlink" version="1.1"><path d="M0 46L28.2 43C56.3 40 112.7 34 169 31C225.3 28 281.7 28 337.8 29.5C394 31 450 34 506.2 34C562.3 34 618.7 31 646.8 29.5L675 28L675 0L646.8 0C618.7 0 562.3 0 506.2 0C450 0 394 0 337.8 0C281.7 0 225.3 0 169 0C112.7 0 56.3 0 28.2 0L0 0Z" fill="#c62368"></path><path d="M0 82L28.2 79C56.3 76 112.7 70 169 68.5C225.3 67 281.7 70 337.8 71.5C394 73 450 73 506.2 73C562.3 73 618.7 73 646.8 73L675 73L675 26L646.8 27.5C618.7 29 562.3 32 506.2 32C450 32 394 29 337.8 27.5C281.7 26 225.3 26 169 29C112.7 32 56.3 38 28.2 41L0 44Z" fill="#bb1a69"></path><path d="M0 109L28.2 107.5C56.3 106 112.7 103 169 104.5C225.3 106 281.7 112 337.8 112C394 112 450 106 506.2 103C562.3 100 618.7 100 646.8 100L675 100L675 71L646.8 71C618.7 71 562.3 71 506.2 71C450 71 394 71 337.8 69.5C281.7 68 225.3 65 169 66.5C112.7 68 56.3 74 28.2 77L0 80Z" fill="#af126a"></path><path d="M0 181L28.2 178C56.3 175 112.7 169 169 169C225.3 169 281.7 175 337.8 173.5C394 172 450 163 506.2 158.5C562.3 154 618.7 154 646.8 154L675 154L675 98L646.8 98C618.7 98 562.3 98 506.2 101C450 104 394 110 337.8 110C281.7 110 225.3 104 169 102.5C112.7 101 56.3 104 28.2 105.5L0 107Z" fill="#a30a6b"></path><path d="M0 208L28.2 205C56.3 202 112.7 196 169 196C225.3 196 281.7 202 337.8 205C394 208 450 208 506.2 208C562.3 208 618.7 208 646.8 208L675 208L675 152L646.8 152C618.7 152 562.3 152 506.2 156.5C450 161 394 170 337.8 171.5C281.7 173 225.3 167 169 167C112.7 167 56.3 173 28.2 176L0 179Z" fill="#97046b"></path><path d="M0 379L28.2 386.5C56.3 394 112.7 409 169 404.5C225.3 400 281.7 376 337.8 374.5C394 373 450 394 506.2 394C562.3 394 618.7 373 646.8 362.5L675 352L675 206L646.8 206C618.7 206 562.3 206 506.2 206C450 206 394 206 337.8 203C281.7 200 225.3 194 169 194C112.7 194 56.3 200 28.2 203L0 206Z" fill="#8a016b"></path><path d="M0 433L28.2 443.5C56.3 454 112.7 475 169 472C225.3 469 281.7 442 337.8 439C394 436 450 457 506.2 461.5C562.3 466 618.7 454 646.8 448L675 442L675 350L646.8 360.5C618.7 371 562.3 392 506.2 392C450 392 394 371 337.8 372.5C281.7 374 225.3 398 169 402.5C112.7 407 56.3 392 28.2 384.5L0 377Z" fill="#7c006b"></path><path d="M0 469L28.2 478C56.3 487 112.7 505 169 500.5C225.3 496 281.7 469 337.8 466C394 463 450 484 506.2 490C562.3 496 618.7 487 646.8 482.5L675 478L675 440L646.8 446C618.7 452 562.3 464 506.2 459.5C450 455 394 434 337.8 437C281.7 440 225.3 467 169 470C112.7 473 56.3 452 28.2 441.5L0 431Z" fill="#6e006a"></path><path d="M0 559L28.2 569.5C56.3 580 112.7 601 169 596.5C225.3 592 281.7 562 337.8 557.5C394 553 450 574 506.2 575.5C562.3 577 618.7 559 646.8 550L675 541L675 476L646.8 480.5C618.7 485 562.3 494 506.2 488C450 482 394 461 337.8 464C281.7 467 225.3 494 169 498.5C112.7 503 56.3 485 28.2 476L0 467Z" fill="#5f0069"></path><path d="M0 730L28.2 736C56.3 742 112.7 754 169 755.5C225.3 757 281.7 748 337.8 748C394 748 450 757 506.2 754C562.3 751 618.7 736 646.8 728.5L675 721L675 539L646.8 548C618.7 557 562.3 575 506.2 573.5C450 572 394 551 337.8 555.5C281.7 560 225.3 590 169 594.5C112.7 599 56.3 578 28.2 567.5L0 557Z" fill="#4f0068"></path><path d="M0 865L28.2 860.5C56.3 856 112.7 847 169 845.5C225.3 844 281.7 850 337.8 851.5C394 853 450 850 506.2 850C562.3 850 618.7 853 646.8 854.5L675 856L675 719L646.8 726.5C618.7 734 562.3 749 506.2 752C450 755 394 746 337.8 746C281.7 746 225.3 755 169 753.5C112.7 752 56.3 740 28.2 734L0 728Z" fill="#3d0066"></path><path d="M0 901L28.2 901C56.3 901 112.7 901 169 901C225.3 901 281.7 901 337.8 901C394 901 450 901 506.2 901C562.3 901 618.7 901 646.8 901L675 901L675 854L646.8 852.5C618.7 851 562.3 848 506.2 848C450 848 394 851 337.8 849.5C281.7 848 225.3 842 169 843.5C112.7 845 56.3 854 28.2 858.5L0 863Z" fill="#280064"></path></svg>