<?xml version="1.0" standalone="no"?>
<!DOCTYPE svg PUBLIC "-//W3C//DTD SVG 20010904//EN"
 "http://www.w3.org/TR/2001/REC-SVG-20010904/DTD/svg10.dtd">
<svg version="1.0" xmlns="http://www.w3.org/2000/svg"
 width="612.000000pt" height="408.000000pt" viewBox="0 0 612.000000 408.000000"
 preserveAspectRatio="xMidYMid meet">

<g transform="translate(0.000000,408.000000) scale(0.100000,-0.100000)"
fill="#000000" stroke="none">
<path d="M3420 3834 c-48 -16 -87 -36 -108 -57 -35 -34 -62 -107 -62 -166 l1
-36 19 37 c11 20 28 39 37 42 10 3 77 6 148 7 125 1 193 -10 181 -30 -11 -17
15 -112 27 -104 7 4 6 -1 -2 -10 -7 -9 -11 -23 -8 -32 5 -10 -5 -17 -35 -26
-23 -6 -56 -23 -75 -37 -31 -25 -33 -31 -33 -88 0 -41 -5 -65 -14 -74 -8 -6
-13 -17 -10 -24 5 -12 66 -36 91 -36 21 0 23 61 3 113 -12 31 -16 53 -10 55 6
2 10 8 10 14 0 18 42 48 67 48 34 0 28 -17 -9 -26 -18 -4 -28 -9 -21 -11 7 -2
9 -11 6 -19 -3 -9 2 -14 16 -14 12 0 20 -6 19 -12 -2 -8 9 -14 25 -16 15 -2
27 -9 27 -15 0 -15 -43 -120 -51 -127 -4 -3 -10 -27 -14 -53 -6 -42 -10 -48
-29 -45 -12 2 -20 10 -18 18 6 28 -8 60 -28 60 -11 0 -20 -4 -20 -9 0 -4 -10
-6 -22 -4 -13 2 -32 -3 -43 -11 -20 -15 -19 -15 6 -16 26 0 45 -23 34 -40 -3
-4 4 -10 15 -13 24 -6 25 -28 3 -79 -13 -29 -25 -40 -52 -48 -20 -5 -42 -10
-50 -10 -28 0 9 -28 47 -35 20 -4 49 -14 64 -23 23 -13 33 -14 61 -4 41 15 67
15 67 1 0 -5 5 -7 12 -3 7 4 8 3 4 -5 -22 -35 -209 -97 -249 -82 -24 10 -37 6
-37 -11 0 -4 3 -7 8 -7 4 1 15 1 25 0 24 -1 22 -21 -3 -21 -14 0 -20 -7 -20
-22 0 -17 3 -19 9 -10 6 10 10 8 14 -8 4 -15 11 -21 20 -17 24 9 41 -45 34
-105 -4 -28 -22 -83 -41 -123 -51 -105 -59 -168 -58 -430 1 -126 -4 -284 -10
-350 -9 -101 -8 -141 6 -253 18 -141 16 -190 -14 -287 -30 -97 -41 -168 -43
-278 -2 -76 2 -108 12 -120 21 -26 -11 -22 -35 4 -17 19 -19 37 -19 153 1 125
2 135 38 236 39 111 47 182 27 250 -5 19 -15 84 -21 144 -9 92 -8 124 6 201
13 72 14 104 6 155 -15 91 -13 277 3 394 11 78 23 115 52 173 36 69 37 74 20
86 -16 12 -18 28 -18 116 l0 102 -32 16 c-38 18 -54 54 -63 141 -3 34 -7 62
-9 62 -2 0 -15 -5 -29 -12 -29 -13 -85 -120 -85 -162 0 -14 -5 -26 -10 -26 -6
0 -72 -24 -148 -52 -124 -48 -142 -58 -192 -108 -87 -86 -127 -199 -110 -305
14 -84 11 -140 -16 -273 -34 -172 -45 -213 -60 -242 -32 -59 -54 -135 -83
-290 -37 -199 -80 -461 -90 -550 -4 -36 -13 -75 -20 -88 -13 -24 -4 -104 9
-82 9 14 80 25 112 17 38 -10 59 -58 57 -127 -1 -33 0 -63 3 -66 6 -5 24 91
36 191 10 76 36 145 82 216 20 30 70 122 110 203 l73 147 -6 79 c-5 78 -5 78
34 135 21 32 39 66 39 76 0 23 10 49 20 49 12 0 18 -83 10 -131 -8 -43 -21
-97 -60 -250 -25 -95 -25 -111 0 -182 27 -77 20 -208 -26 -432 -18 -93 -50
-278 -69 -410 -19 -132 -38 -254 -41 -272 l-6 -33 841 0 c732 0 841 2 841 15
0 8 8 30 17 49 16 34 16 37 -11 108 -19 49 -40 84 -63 105 -34 31 -35 35 -28
75 5 24 9 68 10 98 3 76 2 73 31 115 19 28 24 46 20 67 -4 20 3 41 25 77 17
28 35 71 40 96 5 26 26 95 48 153 23 62 53 178 72 275 l33 168 -18 197 c-10
108 -22 249 -26 312 -9 113 -22 166 -88 360 -16 47 -37 117 -46 155 -28 110
-58 157 -150 227 -48 37 -96 65 -120 70 -22 5 -56 21 -74 35 -19 14 -53 33
-76 42 -59 23 -92 52 -100 88 -4 17 -23 49 -42 71 -18 22 -34 49 -34 60 0 31
-32 51 -93 58 -56 7 -57 7 -57 38 0 20 7 36 20 44 23 14 52 70 70 134 14 53 4
78 -31 78 -18 0 -19 9 -19 125 0 137 -13 195 -59 252 -72 92 -221 129 -351 87z
m886 -2196 c9 -18 23 -46 32 -63 27 -51 27 -142 -1 -292 -15 -76 -28 -149 -29
-163 -3 -20 -7 -15 -23 28 -14 37 -28 58 -47 68 -16 8 -28 16 -28 18 0 2 11
28 24 57 21 47 25 75 31 217 4 89 11 162 17 162 5 0 16 -15 24 -32z m-205
-195 c-12 -20 -14 -14 -5 12 4 9 9 14 11 11 3 -2 0 -13 -6 -23z m-28 -164 c-1
-62 1 -117 5 -123 12 -20 10 -35 -5 -29 -35 14 -44 122 -18 211 9 29 17 52 18
52 1 0 1 -50 0 -111z m-1439 -308 c31 -12 39 -26 32 -56 -4 -14 -18 -27 -38
-34 -26 -9 -30 -14 -18 -21 16 -10 12 -12 -33 -15 -20 -1 -33 5 -46 24 -33 47
-31 85 7 106 27 15 48 14 96 -4z m1644 -197 c2 -23 -4 -39 -23 -60 -20 -22
-25 -24 -20 -9 15 39 17 63 7 69 -18 11 -42 -5 -42 -28 0 -17 -2 -18 -10 -6
-8 12 -10 11 -10 -7 0 -12 9 -31 21 -42 11 -10 16 -21 11 -25 -5 -3 -19 5 -31
18 -21 23 -22 25 -6 62 23 55 35 65 69 62 27 -3 31 -7 34 -34z m-10 -184 c24
-11 57 -29 73 -40 l29 -21 -25 -39 c-14 -22 -24 -43 -23 -47 3 -14 -14 -95
-26 -122 -16 -37 -101 -163 -124 -184 -16 -15 -24 -15 -53 -5 -33 12 -33 12
-9 18 40 10 135 180 100 180 -9 0 -40 -44 -94 -132 -27 -46 -106 -35 -106 14
0 11 7 18 20 18 35 0 77 112 64 167 -6 22 -11 15 -41 -54 -37 -84 -58 -113
-80 -113 -22 0 -6 103 28 175 16 33 29 65 29 70 0 10 84 87 129 117 33 23 56
22 109 -2z m108 -158 c-16 -32 -44 -58 -52 -49 -3 2 9 21 25 40 17 19 31 41
32 48 0 10 2 10 5 2 3 -6 -2 -25 -10 -41z m-96 -248 c-18 -21 -24 -10 -9 18 8
14 14 18 17 10 2 -7 -2 -19 -8 -28z m140 -154 c0 -5 -4 -10 -9 -10 -6 0 -13 5
-16 10 -3 6 1 10 9 10 9 0 16 -4 16 -10z"/>
<path d="M2553 959 c-19 -19 -16 -63 6 -83 16 -14 20 -15 30 -2 8 10 9 16 1
21 -5 3 -10 1 -10 -6 0 -7 -2 -10 -5 -7 -11 10 7 58 21 58 17 0 18 -12 2 -28
-17 -17 15 -27 41 -12 41 21 19 57 -41 66 -20 3 -38 1 -45 -7z"/>
<path d="M3243 3535 c0 -22 2 -30 4 -17 2 12 2 30 0 40 -3 9 -5 -1 -4 -23z"/>
<path d="M3228 3395 c-3 -14 -1 -28 3 -31 5 -3 9 9 9 25 0 38 -6 40 -12 6z"/>
<path d="M3367 3403 c-15 -2 -25 -9 -21 -14 3 -5 10 -6 16 -3 6 4 8 2 4 -4
-10 -17 11 -24 26 -9 7 8 19 12 26 9 18 -6 15 15 -4 22 -9 3 -16 5 -17 5 -1
-1 -14 -4 -30 -6z"/>
<path d="M3420 3250 c0 -5 9 -10 21 -10 11 0 17 5 14 10 -3 6 -13 10 -21 10
-8 0 -14 -4 -14 -10z"/>
<path d="M3415 2680 c-3 -6 0 -10 8 -10 8 0 18 -17 24 -42 l11 -43 1 40 c1 30
-4 43 -19 52 -12 8 -21 9 -25 3z"/>
<path d="M2530 616 c0 -2 8 -10 18 -17 15 -13 16 -12 3 4 -13 16 -21 21 -21
13z"/>
<path d="M2509 576 c-13 -10 -15 -43 -3 -76 5 -11 8 -10 15 8 4 12 15 22 24
22 22 0 20 46 -3 52 -10 3 -25 0 -33 -6z"/>
<path d="M2636 492 c4 -34 1 -58 -6 -68 -10 -11 -10 -14 -1 -14 7 0 9 -4 6
-10 -3 -5 -1 -10 5 -10 6 0 13 8 16 18 3 9 11 28 17 42 15 33 15 45 -1 45 -8
0 -20 11 -28 25 -12 23 -13 21 -8 -28z"/>
<path d="M2520 460 c0 -19 3 -21 12 -12 9 9 9 15 0 24 -9 9 -12 7 -12 -12z"/>
<path d="M2566 435 c4 -8 8 -15 10 -15 2 0 4 7 4 15 0 8 -4 15 -10 15 -5 0 -7
-7 -4 -15z"/>
<path d="M2598 383 c7 -3 16 -2 19 1 4 3 -2 6 -13 5 -11 0 -14 -3 -6 -6z"/>
</g>
</svg>
