<?xml version="1.0" standalone="no"?>
<!DOCTYPE svg PUBLIC "-//W3C//DTD SVG 20010904//EN"
 "http://www.w3.org/TR/2001/REC-SVG-20010904/DTD/svg10.dtd">
<svg version="1.0" xmlns="http://www.w3.org/2000/svg"
 width="612.000000pt" height="408.000000pt" viewBox="0 0 612.000000 408.000000"
 preserveAspectRatio="xMidYMid meet">

<g transform="translate(0.000000,408.000000) scale(0.100000,-0.100000)"
fill="#000000" stroke="none">
<path d="M2470 3812 c-25 -2 -52 -9 -60 -16 -8 -7 -36 -25 -62 -40 -55 -31
-116 -108 -159 -200 -22 -48 -30 -82 -35 -154 -4 -53 -11 -92 -17 -92 -7 0 -7
-4 1 -12 9 -9 7 -14 -6 -24 -10 -7 -13 -16 -8 -21 5 -4 11 -2 13 5 3 6 9 10
14 6 12 -7 12 -47 0 -60 -5 -5 -5 -19 2 -34 10 -25 10 -25 14 -2 4 23 35 32
32 10 -5 -39 2 -89 12 -83 12 8 11 254 -1 270 -5 6 6 21 25 35 19 14 40 36 47
50 7 14 17 28 23 32 6 4 1 8 -10 8 -11 1 7 10 40 22 33 12 65 27 73 34 18 19
75 27 130 21 26 -4 83 -11 127 -16 44 -6 81 -10 82 -10 1 -1 14 -12 29 -26 14
-13 30 -22 34 -20 5 3 12 -9 15 -27 4 -18 12 -36 18 -39 13 -9 14 -118 3 -233
-6 -62 -6 -87 1 -83 14 9 21 51 28 152 3 44 8 90 11 103 9 45 -47 282 -67 282
-5 0 -20 20 -34 45 -27 46 -140 132 -150 115 -3 -5 -19 -7 -35 -5 -57 9 -85
11 -130 7z"/>
<path d="M2310 3344 l-25 -15 35 4 c19 3 49 -1 65 -7 l30 -13 -40 -7 c-55 -11
-74 -23 -72 -46 1 -21 1 -21 33 -25 12 -1 34 -5 50 -9 28 -7 28 -8 10 -22 -19
-13 -19 -14 6 -14 40 0 57 10 74 41 10 21 12 34 5 48 -9 15 -7 20 10 24 17 5
19 9 10 25 -17 33 -146 44 -191 16z"/>
<path d="M2636 3322 c-3 -5 -6 -21 -6 -33 0 -13 -2 -40 -6 -60 -7 -43 6 -55
65 -65 33 -5 42 -4 41 7 -1 8 -2 25 -1 38 1 23 2 24 21 6 20 -18 50 -15 50 6
0 7 -8 21 -17 31 -23 25 -4 45 27 28 15 -8 20 -8 16 -1 -21 33 -174 68 -190
43z m129 -83 c11 -17 2 -18 -19 -3 -17 12 -17 14 -4 14 9 0 20 -5 23 -11z
m-85 -41 c0 -5 -6 -8 -14 -8 -8 0 -13 8 -11 18 2 9 4 19 4 22 2 7 21 -23 21
-32z"/>
<path d="M2367 3042 c-40 -41 -46 -67 -22 -98 13 -17 14 -17 15 -1 0 21 13 22
31 1 12 -14 14 -13 21 6 7 19 13 21 41 16 70 -15 154 -19 161 -8 9 15 -16 19
-139 27 -55 4 -102 8 -104 10 -2 2 11 22 29 45 41 52 17 54 -33 2z"/>
<path d="M2636 3055 c-6 -24 11 -65 26 -65 5 0 8 -7 8 -15 0 -8 -9 -15 -20
-15 -13 0 -20 -7 -20 -20 0 -15 7 -20 24 -20 15 0 26 -7 29 -17 3 -13 9 -8 21
20 9 21 21 35 26 32 18 -11 10 34 -8 47 -10 7 -27 28 -37 46 -23 38 -41 41
-49 7z"/>
<path d="M2210 3060 c-1 -3 -4 -39 -7 -80 -4 -68 -3 -73 10 -55 11 16 13 34 7
80 -4 33 -8 58 -10 55z"/>
<path d="M2475 3050 c-4 -6 5 -10 20 -10 15 0 24 4 20 10 -3 6 -12 10 -20 10
-8 0 -17 -4 -20 -10z"/>
<path d="M2527 3033 c-15 -14 -6 -33 16 -33 31 0 39 9 22 26 -15 15 -28 18
-38 7z"/>
<path d="M2498 2903 c6 -2 18 -2 25 0 6 3 1 5 -13 5 -14 0 -19 -2 -12 -5z"/>
<path d="M2780 2889 c0 -6 -18 -28 -39 -49 -33 -33 -41 -48 -47 -96 -8 -67 1
-171 21 -227 8 -23 15 -58 15 -78 0 -28 5 -38 20 -42 17 -4 19 -12 14 -78 -8
-111 -22 -157 -58 -183 -138 -103 -360 -21 -474 175 -17 30 -41 69 -52 87
l-22 32 83 0 c99 0 102 8 4 11 -68 2 -71 3 -113 44 -46 46 -83 51 -103 14 -7
-15 -14 -17 -28 -10 -14 8 -23 4 -43 -20 -25 -28 -29 -29 -115 -29 -48 0 -98
-3 -110 -6 -38 -10 -15 -24 30 -18 98 13 127 9 158 -22 25 -25 32 -44 45 -126
16 -95 16 -100 -5 -182 -21 -87 -25 -165 -12 -269 6 -51 12 -63 50 -100 24
-23 71 -85 105 -137 64 -100 94 -123 189 -150 39 -11 538 -17 587 -6 14 2 59
10 100 15 81 12 149 30 164 43 5 4 10 16 11 26 1 10 19 44 39 75 21 32 35 61
31 65 -11 11 -56 -49 -79 -108 -24 -58 -46 -77 -46 -38 0 52 101 208 135 208
8 0 19 9 25 20 13 23 3 26 -26 6 -19 -13 -20 -12 -16 19 2 18 -1 36 -7 39 -7
5 -9 -3 -5 -22 5 -25 1 -33 -30 -57 -20 -15 -36 -33 -36 -40 0 -7 -11 -29 -25
-49 -14 -21 -23 -40 -21 -44 7 -12 -20 -106 -32 -110 -17 -5 -15 21 8 85 11
32 20 65 20 75 0 27 22 68 36 68 8 0 11 6 8 15 -4 8 -1 15 5 15 6 0 11 8 11
17 0 14 -4 13 -25 -7 -13 -13 -27 -32 -31 -42 -9 -30 -21 -12 -22 38 -1 25 -5
51 -8 56 -3 5 -9 85 -13 177 -8 167 -18 222 -32 171 -6 -20 -7 -16 -8 19 -1
46 -56 181 -73 181 -5 0 -6 5 -3 10 3 6 0 10 -8 10 -7 0 -23 11 -35 25 -12 14
-27 25 -33 25 -7 0 -9 10 -5 28 22 89 23 106 12 125 -8 15 -8 21 2 24 6 3 12
17 12 31 1 33 -81 282 -92 282 -4 0 -8 -5 -8 -11z m-33 -271 c-3 -8 -6 -5 -6
6 -1 11 2 17 5 13 3 -3 4 -12 1 -19z m52 -110 c1 -34 -6 -35 -36 -6 -27 26
-29 45 -6 78 l17 24 12 -35 c7 -19 13 -46 13 -61z m-802 -435 c-3 -10 -5 -2
-5 17 0 19 2 27 5 18 2 -10 2 -26 0 -35z m1030 15 c-3 -8 -6 -5 -6 6 -1 11 2
17 5 13 3 -3 4 -12 1 -19z m27 -438 c5 -24 4 -30 -3 -20 -5 8 -12 33 -15 55
-8 48 8 19 18 -35z"/>
<path d="M2500 2880 c-13 -9 -13 -11 0 -20 24 -15 70 -12 70 5 0 8 -6 15 -14
15 -8 0 -20 2 -28 5 -7 3 -20 0 -28 -5z"/>
<path d="M2362 2769 c2 -7 13 -17 24 -23 10 -6 40 -26 67 -43 26 -18 51 -33
55 -33 5 0 19 11 32 25 l24 26 -51 -2 c-42 -2 -60 4 -103 30 -29 18 -50 27
-48 20z"/>
<path d="M1796 1761 c-18 -7 -18 -8 5 -14 35 -10 39 -9 39 8 0 16 -14 18 -44
6z"/>
<path d="M1693 1741 c-32 -16 -43 -31 -23 -31 18 0 70 30 70 40 0 13 -7 11
-47 -9z"/>
<path d="M3288 1690 c-44 -24 -61 -45 -21 -28 25 11 74 49 62 48 -2 -1 -21
-10 -41 -20z"/>
<path d="M1711 1661 c-18 -17 -37 -31 -43 -31 -6 0 -26 -16 -44 -35 -17 -19
-26 -35 -19 -35 6 0 20 9 30 20 26 29 109 80 129 80 10 0 16 6 14 13 -8 23
-36 18 -67 -12z"/>
<path d="M3320 1629 c0 -5 5 -7 10 -4 6 3 10 8 10 11 0 2 -4 4 -10 4 -5 0 -10
-5 -10 -11z"/>
<path d="M1702 1571 c-44 -30 -106 -91 -92 -91 4 0 24 11 44 25 59 40 117 67
132 61 7 -3 16 -1 19 4 4 6 23 10 43 11 33 1 34 2 12 9 -56 18 -113 11 -158
-19z"/>
<path d="M3230 1570 c-15 -16 -30 -39 -33 -50 -8 -30 15 -20 31 13 7 14 24 35
39 47 20 16 22 20 8 20 -9 0 -29 -13 -45 -30z"/>
<path d="M3325 1555 l-50 -44 35 0 c19 -1 42 4 50 9 13 9 12 12 -4 25 -17 13
-17 15 -3 20 12 5 33 35 24 35 -1 0 -25 -20 -52 -45z"/>
<path d="M1712 1488 c-52 -22 -70 -34 -63 -41 8 -8 24 -5 56 11 25 12 63 25
85 28 46 7 64 -6 74 -53 8 -36 16 -44 71 -65 22 -9 58 -23 80 -32 l40 -17 -36
33 c-20 18 -47 48 -59 67 -46 67 -73 87 -126 94 -41 4 -62 0 -122 -25z"/>
<path d="M2270 1400 c-13 -9 -13 -10 0 -10 8 0 22 5 30 10 13 9 13 10 0 10 -8
0 -22 -5 -30 -10z"/>
<path d="M2235 1271 c28 -10 66 -26 85 -36 46 -23 190 -124 190 -133 0 -14
-55 -32 -95 -32 -23 0 -88 7 -146 16 -105 16 -264 15 -290 -2 -38 -23 -174
-86 -200 -91 -16 -3 -29 -9 -29 -14 0 -12 55 -39 82 -39 26 -1 73 -24 73 -37
1 -4 10 -29 22 -54 19 -43 66 -79 102 -79 7 0 20 -15 31 -33 18 -30 23 -32 78
-35 46 -2 68 2 98 19 27 15 67 24 134 30 52 5 109 12 126 15 37 7 48 -5 46
-53 -2 -40 4 -41 30 -8 11 14 27 25 36 25 21 1 52 23 52 39 0 6 4 11 9 11 5 0
45 31 89 69 80 69 145 101 205 101 16 0 70 18 119 40 50 22 103 40 117 40 15
0 69 13 121 29 52 16 107 32 123 35 15 4 27 11 27 17 0 21 -75 97 -105 104
-64 17 -101 30 -112 38 -21 16 -284 6 -315 -12 -31 -17 -35 -27 -15 -34 7 -3
5 -6 -5 -6 -10 -1 -18 -5 -18 -10 0 -17 -86 -30 -170 -26 -80 4 -294 51 -336
73 -21 11 -179 52 -198 52 -6 -1 12 -9 39 -19z"/>
<path d="M1765 736 c-10 -7 -19 -19 -21 -27 -7 -50 -29 -105 -59 -149 -43 -65
-85 -198 -125 -398 -16 -84 -30 -155 -30 -158 0 -2 363 -4 806 -4 l806 0 -9
33 c-4 17 -7 88 -5 156 2 89 -2 142 -13 189 -9 36 -14 80 -11 100 4 21 0 54
-7 75 l-14 39 -6 -31 c-8 -38 -75 -84 -157 -107 -30 -9 -64 -22 -76 -29 -52
-33 -225 -71 -210 -46 7 11 -72 51 -99 51 -21 0 -107 47 -117 65 -6 9 -21 10
-59 3 -66 -12 -105 7 -135 65 -28 55 -67 66 -124 37 -36 -18 -45 -30 -41 -52
0 -5 -5 -8 -13 -8 -8 0 -16 -5 -18 -11 -10 -30 -211 90 -239 143 -6 11 -9 33
-7 49 3 16 4 29 3 29 -1 0 -10 -6 -20 -14z"/>
<path d="M2520 651 c-14 -28 -12 -64 5 -87 13 -18 14 -17 15 17 0 19 5 40 11
46 13 13 5 43 -10 43 -6 0 -15 -9 -21 -19z"/>
</g>
</svg>
