<?xml version="1.0" standalone="no"?>
<!DOCTYPE svg PUBLIC "-//W3C//DTD SVG 20010904//EN"
 "http://www.w3.org/TR/2001/REC-SVG-20010904/DTD/svg10.dtd">
<svg version="1.0" xmlns="http://www.w3.org/2000/svg"
 width="408.000000pt" height="612.000000pt" viewBox="0 0 408.000000 612.000000"
 preserveAspectRatio="xMidYMid meet">

<g transform="translate(0.000000,612.000000) scale(0.100000,-0.100000)"
fill="#000000" stroke="none">
<path d="M2029 5656 c-3 -3 -30 -7 -60 -10 -66 -6 -74 -9 -159 -49 -47 -22
-86 -52 -144 -111 -43 -45 -90 -95 -103 -113 -34 -44 -73 -158 -73 -215 0 -56
20 -149 31 -142 4 2 10 0 13 -5 4 -5 2 -12 -4 -16 -5 -3 -10 -23 -10 -44 0
-21 -3 -41 -7 -45 -11 -11 -12 -36 -2 -36 6 0 8 -4 4 -10 -3 -5 2 -17 12 -27
10 -10 24 -32 32 -48 8 -18 16 -25 18 -17 9 24 41 -27 54 -84 14 -60 29 -81
27 -37 0 15 3 87 6 158 6 119 9 133 34 169 22 33 24 40 12 50 -8 6 -16 22 -16
36 -1 14 -4 52 -8 85 -9 85 11 108 124 140 84 23 112 24 235 10 55 -6 63 -4
89 19 41 35 94 42 161 21 30 -10 65 -15 79 -13 21 4 27 -2 50 -53 14 -32 26
-72 26 -88 0 -17 4 -32 9 -36 5 -3 9 -18 9 -33 -1 -15 8 -53 19 -83 11 -29 33
-105 48 -166 15 -62 31 -113 35 -113 16 0 18 55 3 73 -20 21 -10 35 12 17 13
-11 15 -7 15 29 0 28 -5 44 -15 47 -8 4 -12 10 -9 15 3 5 0 9 -5 9 -6 0 -10 3
-9 8 2 4 -3 39 -9 77 -7 39 -17 106 -23 150 -10 77 -24 113 -98 251 -15 29
-32 49 -39 47 -7 -3 -13 -1 -13 4 0 11 -45 63 -55 63 -4 0 -24 12 -44 28 -48
37 -103 61 -165 73 -28 5 -58 12 -67 14 -8 3 -18 3 -20 1z m483 -548 c-6 -6
-7 0 -4 19 5 21 7 23 10 9 2 -10 0 -22 -6 -28z"/>
<path d="M2313 5010 c-48 -10 -94 -32 -112 -54 -19 -23 -2 -88 28 -102 16 -8
19 -13 9 -17 -17 -6 34 -26 86 -33 31 -5 52 -1 84 16 23 12 39 26 36 31 -3 5
3 9 14 9 33 0 32 11 -8 51 -25 25 -48 39 -64 39 -28 0 -35 17 -12 26 16 6 66
-17 85 -40 17 -20 31 -20 31 -1 0 25 -38 55 -70 55 -22 0 -28 4 -24 15 7 17
-14 18 -83 5z m74 -78 c6 -4 -11 -7 -37 -7 -26 0 -46 3 -43 8 5 9 64 9 80 -1z
m13 -55 c11 3 20 1 20 -5 0 -10 -33 -22 -60 -22 -13 0 -13 1 0 10 10 7 0 8
-35 5 l-50 -4 50 13 c28 7 51 9 53 5 2 -4 12 -5 22 -2z"/>
<path d="M1915 4963 c-46 -10 -143 -66 -153 -89 -20 -42 18 -40 73 5 12 10 9
1 -10 -24 -16 -22 -34 -43 -39 -47 -11 -7 5 -12 29 -9 6 0 33 -7 61 -17 48
-18 53 -18 112 -2 73 20 87 29 46 32 -40 2 -46 1 -69 -7 -16 -6 -17 -5 -5 4 9
7 10 11 3 11 -6 0 -15 -4 -18 -10 -8 -12 -95 -13 -95 -1 0 11 36 21 82 21 20
0 38 5 40 12 3 7 13 5 31 -7 26 -17 28 -17 60 8 19 14 34 31 34 39 0 7 4 20 7
29 12 28 -51 59 -115 58 -30 -1 -63 -3 -74 -6z m-40 -71 c-3 -3 -11 0 -18 7
-9 10 -8 11 6 5 10 -3 15 -9 12 -12z m104 -4 c35 -13 20 -19 -19 -8 -28 8 -42
6 -75 -10 l-40 -19 25 21 c14 11 24 25 22 30 -3 10 44 3 87 -14z"/>
<path d="M1486 4813 c-11 -11 -6 -49 8 -69 14 -18 15 -18 21 9 4 15 11 27 17
27 5 0 6 4 3 10 -9 15 -41 30 -49 23z"/>
<path d="M1541 4720 c-16 -38 3 -74 31 -59 24 13 24 61 0 75 -15 10 -20 7 -31
-16z"/>
<path d="M2370 4621 c5 -11 21 -28 34 -38 13 -11 34 -35 45 -54 24 -39 28 -25
7 25 -8 18 -29 45 -48 60 -41 31 -52 33 -38 7z"/>
<path d="M2231 4601 c-8 -5 -29 -7 -47 -4 -19 3 -51 -2 -78 -12 -25 -10 -52
-15 -61 -12 -25 10 -18 -21 11 -48 15 -14 39 -25 55 -25 15 0 31 -4 34 -10 9
-15 60 -12 102 5 19 8 47 15 60 15 20 0 23 3 15 13 -7 8 -9 29 -5 50 l6 37
-39 0 c-22 0 -45 -4 -53 -9z"/>
<path d="M2550 4590 c0 -11 4 -20 9 -20 17 0 19 15 5 28 -12 11 -14 9 -14 -8z"/>
<path d="M1530 4591 c0 -5 7 -12 16 -15 14 -5 15 -4 4 9 -14 17 -20 19 -20 6z"/>
<path d="M1910 4530 c-32 -27 -33 -29 -13 -30 13 0 37 13 55 30 29 26 30 29
13 30 -12 0 -36 -13 -55 -30z"/>
<path d="M2542 4533 c-1 -18 -6 -33 -12 -33 -5 0 -10 -6 -10 -14 0 -8 -6 -16
-13 -19 -21 -8 -43 -85 -29 -99 18 -18 15 -33 -3 -18 -13 11 -14 10 -9 -3 3
-9 -1 -26 -10 -39 -9 -12 -16 -32 -16 -43 0 -16 -2 -17 -9 -6 -7 11 -11 4 -16
-25 -8 -45 -44 -88 -95 -114 -26 -13 -59 -17 -134 -18 -95 0 -100 1 -162 37
-36 20 -65 40 -67 45 -3 15 -66 76 -77 76 -6 0 -8 5 -5 10 3 6 -1 10 -9 10 -9
0 -18 11 -22 24 -4 17 -11 23 -22 19 -10 -4 -13 -2 -8 5 9 15 -6 16 -20 2 -7
-7 -15 -3 -23 14 -7 13 -24 30 -37 37 -13 7 -24 16 -24 20 0 4 -7 14 -15 23
-8 8 -16 26 -17 40 -3 31 -4 31 -26 9 -15 -15 -15 -16 -1 -11 18 7 29 -25 29
-81 0 -21 2 -23 11 -11 9 12 10 12 5 -3 -8 -24 21 -137 40 -158 8 -8 14 -20
14 -26 0 -6 7 -16 15 -23 8 -7 15 -23 15 -35 0 -12 9 -34 20 -48 11 -14 20
-30 20 -36 0 -6 8 -25 19 -43 19 -34 49 -91 62 -119 4 -8 5 -27 2 -42 -4 -19
-1 -27 8 -27 11 0 11 -2 -1 -10 -12 -8 -13 -11 -2 -22 11 -11 16 -9 28 6 8 12
14 14 14 7 0 -7 6 -11 14 -8 8 3 16 -2 19 -14 3 -10 15 -23 27 -27 12 -4 21
-11 21 -15 -2 -21 0 -27 13 -27 21 0 40 -27 24 -33 -7 -2 -10 -7 -7 -11 4 -4
14 1 23 10 13 12 20 14 29 5 20 -20 47 -11 69 24 13 19 29 35 36 35 6 0 12 4
12 10 0 5 5 9 11 7 6 -1 20 24 32 56 l22 57 0 -77 c1 -59 5 -86 20 -110 10
-18 22 -30 27 -27 4 3 8 -8 8 -24 0 -40 -81 -132 -117 -132 -109 0 -456 187
-668 360 -113 92 -162 122 -188 115 -12 -4 -44 -28 -72 -54 -27 -26 -77 -69
-110 -96 -121 -100 -189 -172 -256 -272 -37 -56 -81 -117 -98 -135 -17 -18
-43 -56 -56 -83 -42 -84 -47 -146 -37 -416 10 -266 19 -306 74 -360 15 -14 33
-52 44 -88 15 -51 25 -68 49 -82 22 -13 37 -36 54 -81 36 -95 124 -268 172
-340 23 -35 71 -92 105 -128 35 -36 67 -78 73 -93 6 -16 11 -89 11 -163 l0
-134 -36 -73 c-60 -118 -75 -172 -83 -302 -4 -68 -13 -131 -21 -145 -7 -14
-17 -54 -21 -90 -16 -137 -32 -229 -61 -350 -47 -200 -49 -217 -42 -352 l7
-128 965 0 965 0 -6 46 c-4 35 1 59 19 100 20 45 24 72 26 176 3 120 2 125
-31 201 l-33 77 31 35 c35 40 35 38 21 85 -11 36 -34 195 -50 350 -24 222 -31
363 -28 577 l3 232 120 -40 c147 -49 244 -59 327 -35 31 9 68 16 83 16 14 0
40 7 57 16 17 9 72 25 121 35 61 12 97 25 113 40 26 25 54 104 54 153 -1 29
-2 30 -15 12 -10 -13 -21 -17 -39 -12 -15 4 -26 1 -29 -7 -4 -9 -8 -9 -16 2
-8 13 -13 11 -29 -9 -18 -23 -42 -21 -42 3 0 20 -51 36 -122 40 -38 1 -73 8
-80 15 -16 16 -37 15 -44 -1 -2 -7 -17 -12 -34 -11 -17 1 -27 -2 -24 -8 4 -5
-15 -8 -48 -7 -29 1 -87 -2 -128 -6 -94 -9 -86 -9 -142 9 -29 9 -48 11 -48 5
0 -6 -9 -7 -22 -3 -12 3 -60 7 -107 8 -47 1 -95 7 -107 14 -16 8 -27 8 -48 -3
-15 -8 -57 -20 -93 -26 -60 -11 -67 -10 -85 9 -19 18 -22 19 -59 4 -21 -8 -39
-19 -39 -24 0 -4 -12 -8 -27 -8 -53 0 -54 -15 -3 -33 28 -10 50 -24 50 -31 0
-8 7 -19 15 -26 11 -9 12 -16 3 -33 -6 -12 -14 -28 -17 -35 -3 -7 -19 -20 -36
-29 -16 -9 -39 -21 -50 -27 -11 -6 -54 -11 -95 -11 -41 -1 -86 -5 -100 -9 -29
-10 -88 -34 -112 -47 -10 -5 -23 -9 -29 -9 -6 0 -24 -9 -40 -20 -15 -12 -51
-24 -79 -27 -48 -6 -50 -7 -34 -24 37 -41 154 -37 236 9 22 13 45 18 59 15 18
-5 21 -3 16 10 -4 11 -1 17 7 17 7 0 21 9 31 20 10 11 31 20 47 20 15 0 28 5
28 11 0 5 4 8 9 4 5 -3 25 1 43 9 28 12 56 23 78 31 51 18 117 82 112 109 -3
16 -1 16 20 5 12 -7 46 -14 73 -14 52 -1 135 -42 135 -67 0 -21 -85 -92 -146
-123 -32 -16 -67 -36 -77 -44 -9 -8 -20 -11 -24 -7 -9 9 29 59 57 73 13 6 28
20 33 30 10 17 9 17 -16 0 -31 -20 -41 -22 -31 -5 4 7 -4 4 -17 -8 -22 -20
-62 -39 -65 -32 -1 2 -10 -5 -21 -14 -10 -9 -37 -20 -60 -24 -23 -3 -50 -14
-60 -24 -14 -13 -25 -15 -50 -8 -25 7 -39 5 -58 -8 -14 -9 -23 -19 -20 -23 2
-4 40 -6 84 -5 45 1 81 -1 81 -4 -1 -22 -72 -71 -104 -72 -15 -1 -56 -36 -56
-48 0 -17 -39 -45 -64 -45 -14 1 -27 -6 -30 -13 -3 -8 -13 -14 -23 -14 -10 0
-29 -6 -43 -13 -25 -13 -85 -9 -160 10 -40 10 -73 6 -65 -8 16 -24 -42 -4 -91
32 -54 40 -164 145 -164 158 0 3 -16 17 -35 31 -18 14 -38 35 -44 48 -6 12
-18 25 -26 28 -20 8 -19 24 2 39 19 14 11 32 -20 46 -12 5 -29 13 -37 17 -40
23 -61 32 -74 32 -7 0 -31 17 -53 38 -21 21 -55 48 -76 61 -20 12 -37 27 -37
31 0 5 -12 22 -28 38 -15 15 -34 37 -42 47 -13 17 -13 18 0 11 9 -4 8 -1 -2 7
-10 8 -18 17 -18 20 0 3 -14 26 -31 51 -17 25 -27 51 -23 57 4 7 3 9 -2 6 -11
-6 -95 149 -94 175 0 29 71 65 247 125 108 37 227 87 331 140 92 46 176 83
192 83 23 0 38 -12 74 -55 70 -86 109 -164 143 -285 3 -10 6 -11 11 -3 21 34
122 43 193 18 90 -32 192 -47 279 -42 80 5 132 1 343 -22 49 -5 110 -7 136 -4
l49 5 -14 27 c-8 14 -14 31 -14 37 0 23 32 74 66 104 19 17 36 39 37 50 1 18
22 26 52 20 6 -1 24 -3 40 -4 17 -2 36 -4 43 -5 7 0 19 -16 28 -34 10 -21 30
-40 58 -53 l43 -19 -11 27 c-7 15 -24 41 -39 57 -15 17 -27 35 -27 41 0 5 -4
10 -10 10 -5 0 -10 6 -10 14 0 8 -4 16 -8 18 -9 3 -92 123 -92 133 0 4 -12 22
-26 40 -15 20 -23 39 -18 46 4 8 3 9 -4 5 -7 -4 -12 -4 -12 1 0 14 108 87 162
110 29 12 72 23 96 23 23 0 42 4 42 9 0 5 -13 38 -30 73 -16 34 -30 71 -30 80
0 9 -4 19 -9 22 -4 3 -16 31 -26 62 -45 143 -172 286 -349 392 -72 43 -159 77
-175 68 -10 -6 -107 25 -149 48 -15 9 -45 20 -68 26 -23 5 -56 21 -75 35 -19
13 -49 32 -67 42 -37 19 -36 15 -6 118 11 39 30 74 54 100 42 46 121 171 145
231 12 30 15 65 12 135 -1 52 -4 79 -5 62z m-30 -105 c-8 -8 -9 -4 -5 13 4 13
8 18 11 10 2 -7 -1 -18 -6 -23z m-224 -405 c-2 -10 3 -17 10 -15 6 1 12 -2 12
-8 0 -5 -6 -10 -12 -10 -9 0 -8 -4 2 -11 11 -8 12 -12 3 -16 -7 -2 -13 -13
-13 -23 0 -10 -5 -22 -10 -25 -15 -9 -28 36 -20 67 5 14 6 29 3 32 -7 7 6 26
18 26 5 0 9 -8 7 -17z m679 -1425 c2 -25 1 -26 -18 -10 -24 20 -25 45 -2 40
11 -2 18 -14 20 -30z m-37 -52 c0 -3 -4 -8 -10 -11 -5 -3 -10 -1 -10 4 0 6 5
11 10 11 6 0 10 -2 10 -4z m9 -545 c36 -11 125 -27 196 -37 72 -9 133 -22 137
-28 5 -8 8 -7 8 2 0 6 5 12 10 12 6 0 10 -7 10 -15 0 -15 12 -18 66 -15 18 1
35 -3 39 -9 3 -6 3 -11 -2 -12 -4 0 -28 -2 -53 -3 -25 -2 -85 7 -135 19 -50
13 -120 26 -155 30 -35 3 -68 9 -73 12 -5 3 -28 7 -50 9 -23 2 -62 7 -87 12
-43 8 -44 9 -18 16 16 5 25 12 22 17 -8 13 12 11 85 -10z m396 -51 c3 -5 -1
-10 -10 -10 -9 0 -13 5 -10 10 3 6 8 10 10 10 2 0 7 -4 10 -10z m-825 -244 c0
-3 -4 -8 -10 -11 -5 -3 -10 -1 -10 4 0 6 5 11 10 11 6 0 10 -2 10 -4z"/>
<path d="M2378 4496 c-8 -7 -36 -16 -63 -20 -28 -4 -63 -11 -80 -16 -16 -5
-50 -12 -75 -15 -25 -3 -63 -10 -85 -15 -57 -14 -75 -13 -69 4 4 10 -6 15 -35
18 -33 3 -42 0 -47 -14 -8 -26 3 -37 53 -59 46 -20 98 -26 89 -10 -3 5 11 12
32 16 20 4 43 11 49 17 7 6 19 8 26 5 7 -3 21 1 32 9 13 10 22 11 32 3 9 -9
13 -8 13 0 0 7 8 11 18 9 9 -1 23 1 30 5 7 5 12 3 12 -3 0 -7 7 -10 15 -6 8 3
15 2 15 -3 0 -14 -36 -41 -56 -41 -15 0 -16 -2 -5 -9 19 -12 56 7 100 52 18
20 40 33 47 30 10 -4 14 4 14 26 0 26 -4 31 -24 31 -14 0 -31 -6 -38 -14z"/>
<path d="M1615 4490 c27 -12 35 -12 35 0 0 6 -12 10 -27 9 -25 0 -26 -1 -8 -9z"/>
<path d="M1775 4369 c-4 -6 -5 -13 -2 -16 7 -7 27 6 27 18 0 12 -17 12 -25 -2z"/>
<path d="M1840 4350 c0 -5 7 -10 16 -10 8 0 12 5 9 10 -3 6 -10 10 -16 10 -5
0 -9 -4 -9 -10z"/>
<path d="M2195 4282 c-65 -3 -79 -10 -66 -31 12 -19 110 -23 141 -6 14 8 21
14 16 15 -5 0 -4 6 2 13 12 14 5 15 -93 9z"/>
<path d="M2245 3599 c-10 -15 3 -25 16 -12 7 7 7 13 1 17 -6 3 -14 1 -17 -5z"/>
<path d="M3280 2481 c0 -6 -11 -16 -24 -21 -14 -5 -54 -23 -90 -40 -36 -16
-75 -30 -88 -30 -19 -1 -20 -2 -7 -10 19 -11 74 2 98 24 9 8 37 24 62 34 47
20 66 38 55 49 -3 4 -6 1 -6 -6z"/>
<path d="M3777 2373 c-5 -7 -17 -13 -28 -13 -10 0 -19 -4 -19 -10 0 -5 -7 -10
-15 -10 -14 0 -14 -3 0 -31 33 -63 79 -43 73 32 -2 27 -6 39 -11 32z"/>
<path d="M1985 2140 c10 -11 20 -18 23 -15 7 6 -18 35 -31 35 -5 0 -2 -9 8
-20z"/>
</g>
</svg>
